PathFileType	4	(X/Y/Z)	./resultDataOpenSim/trcMotMarkerGrf/sub06/qtm-05-08.trc
DataRate	CameraRate	NumFrames	NumMarkers	Units	OrigDataRate	OrigDataStartFrame	OrigNumFrames
250.000000	250.000000	9	24	m	250.000000	317	507
Frame#	Time	L.Toe.Tip			R.Toe.Tip			L.Ankle.Lat			R.Ankle.Lat			L.Ankle.Med			R.Ankle.Med			L.Heel			R.Heel			L.Knee.Lat			R.Knee.Lat			L.Knee.Med			R.Knee.Med			L.Thigh.Upper			R.Thigh.Upper			L.ASIS			R.ASIS			V.Sacral			L.Acromium			R.Acromium			C7			L.Elbow			R.Elbow			L.Wrist.Lat			R.Wrist.Lat
		X1	Y1	Z1	X2	Y2	Z2	X3	Y3	Z3	X4	Y4	Z4	X5	Y5	Z5	X6	Y6	Z6	X7	Y7	Z7	X8	Y8	Z8	X9	Y9	Z9	X10	Y10	Z10	X11	Y11	Z11	X12	Y12	Z12	X13	Y13	Z13	X14	Y14	Z14	X15	Y15	Z15	X16	Y16	Z16	X17	Y17	Z17	X18	Y18	Z18	X19	Y19	Z19	X20	Y20	Z20	X21	Y21	Z21	X22	Y22	Z22	X23	Y23	Z23	X24	Y24	Z24

317	1.264	0.22279628	0.034192143	-0.041499294	0.92821941	0.03560121	0.093200402	0.24539319	0.16561007	-0.067648652	0.79219888	0.059459202	0.11318462	0.27170204	0.1639291	0.014549296	0.8159083	0.079647208	0.02640269	0.21153235	0.22449688	-0.011278005	0.73814402	0.038012931	0.051230983	0.59111239	0.31407459	-0.11553835	0.88223698	0.42938938	0.15780569	0.59865128	0.30019894	0.0051523287	0.846809	0.41772692	0.035584785	0.60408879	0.70285538	-0.11056071	0.68009356	0.74497587	0.22605955	0.6920537	0.75415957	-0.085916222	0.74698827	0.78501083	0.14856957	0.53685023	0.85197852	0.067644182	0.70257006	1.2586923	-0.11564059	0.70883459	1.2227	0.24351082	0.62351841	1.2846427	0.066905937	0.75531639	0.93480594	-0.19110337	0.57565831	0.9419744	0.3077838	0.98027759	0.87280342	-0.097023426	0.6612775	0.72075942	0.36216561
318	1.268	0.23440559	0.04029072	-0.042427543	0.92803016	0.035606228	0.093493742	0.25735667	0.1715004	-0.068138754	0.79198897	0.059400929	0.11331906	0.28330262	0.16983673	0.013990448	0.8160111	0.079761515	0.02662614	0.22344891	0.23070401	-0.011958052	0.73811613	0.038031305	0.050991979	0.60393107	0.31600566	-0.11658929	0.88440784	0.42885442	0.15887068	0.61157505	0.30226309	0.0042306231	0.8495272	0.41801255	0.036441178	0.61078997	0.70530896	-0.11034373	0.68506673	0.74660587	0.22683166	0.69827281	0.75659583	-0.085705783	0.75248432	0.7866266	0.1497225	0.54275992	0.85428463	0.067816271	0.70805147	1.2611137	-0.11567892	0.71482106	1.2250584	0.24358677	0.62935975	1.2869534	0.067115419	0.75881024	0.93698195	-0.19112506	0.58398244	0.94303936	0.30822937	0.98312707	0.87082797	-0.098665792	0.67294672	0.7227085	0.36140306
319	1.272	0.24621884	0.046274242	-0.043213498	0.92784271	0.035611943	0.093810587	0.26946357	0.1772754	-0.068676458	0.79177794	0.059348394	0.11345442	0.29513775	0.17560142	0.013408134	0.81609441	0.079877282	0.026869234	0.23551294	0.23679992	-0.012715847	0.73807009	0.038052093	0.050871561	0.61673076	0.31808517	-0.11755511	0.88640053	0.4283424	0.15985121	0.62434507	0.30441291	0.0034887218	0.85215626	0.41845185	0.037262557	0.61743467	0.70783023	-0.11008462	0.68979469	0.74820941	0.22743712	0.70443776	0.75900929	-0.085544765	0.75789317	0.78828314	0.15085979	0.54867538	0.85663346	0.067929683	0.7135355	1.2635923	-0.11576213	0.72073394	1.2275177	0.24366298	0.63515079	1.2893202	0.067293737	0.76220302	0.93919767	-0.19112192	0.59217788	0.94419247	0.30864251	0.98580914	0.86889122	-0.10040217	0.68471933	0.72491865	0.36064455
320	1.276	0.25822486	0.052124415	-0.043875252	0.92765922	0.035621459	0.094146399	0.28169968	0.18292429	-0.069269912	0.79156568	0.059289799	0.11359748	0.30715392	0.18123392	0.01279867	0.81615311	0.079994793	0.027124936	0.24770385	0.24276386	-0.01353361	0.73800861	0.03808066	0.050830859	0.62952618	0.32032403	-0.11844039	0.88823371	0.42787975	0.16078528	0.63696999	0.30667485	0.0028877255	0.85467585	0.41899702	0.038060362	0.62400066	0.71041497	-0.10975351	0.69441281	0.74983925	0.22797353	0.7105687	0.76141514	-0.085443465	0.76327558	0.79004157	0.15200133	0.55473129	0.85899589	0.06795911	0.71903007	1.266124	-0.11589468	0.72657371	1.2300669	0.24373464	0.64089952	1.291745	0.067442199	0.76551328	0.9414821	-0.19109261	0.6002619	0.94543081	0.3090195	0.98833154	0.86699735	-0.10223002	0.69664974	0.72741589	0.35991853
321	1.28	0.27040867	0.057822733	-0.044433164	0.92747694	0.035637425	0.094486676	0.29406347	0.18841868	-0.069898956	0.79135502	0.059217735	0.1137553	0.3193057	0.18674702	0.012163144	0.81618288	0.080115323	0.027389603	0.25999245	0.24856896	-0.01438987	0.73794018	0.038116494	0.050828522	0.64233501	0.32272056	-0.11925537	0.88994981	0.42746685	0.16172403	0.64949264	0.30910492	0.0023591424	0.85707569	0.41959776	0.038852059	0.63052039	0.71306149	-0.10939682	0.69912117	0.75159015	0.22857176	0.71676838	0.76387998	-0.0853116	0.76868773	0.79195241	0.15316061	0.56095888	0.86135962	0.067944524	0.72451827	1.268696	-0.1160422	0.73234352	1.2326875	0.24379736	0.64661022	1.2942254	0.06756536	0.76875529	0.94386018	-0.19104372	0.60825375	0.94675182	0.30935686	0.99069861	0.86514834	-0.10414523	0.70867002	0.73016065	0.35920398
322	1.284	0.28275266	0.063348176	-0.044906226	0.92729485	0.035659694	0.094811876	0.30654118	0.19373273	-0.07053895	0.79115442	0.059135735	0.1139274	0.33156786	0.19214091	0.011505957	0.81618676	0.080238661	0.027659774	0.27234544	0.25418741	-0.01525572	0.7378733	0.038156793	0.050844458	0.65516259	0.32525755	-0.12001415	0.8915813	0.42708197	0.1626952	0.66196801	0.3117088	0.0018583556	0.85936258	0.42020445	0.039648043	0.63707409	0.71577467	-0.109117	0.70393476	0.75346626	0.2292183	0.72313905	0.76646722	-0.085024489	0.77414155	0.79401301	0.15433054	0.56726415	0.86373517	0.067917591	0.72997559	1.2712915	-0.11615832	0.73805077	1.2353652	0.24385141	0.65228455	1.2967509	0.067668199	0.77192131	0.94632747	-0.1909795	0.61616901	0.94815267	0.30965672	0.99290913	0.863343	-0.106144	0.72066645	0.73308835	0.35845859
323	1.288	0.2952437	0.068679328	-0.045316416	0.92711845	0.035685788	0.095108458	0.31910196	0.19885844	-0.071176965	0.79098182	0.059053474	0.11409801	0.34392135	0.19740991	0.010834514	0.81617541	0.080362229	0.027925704	0.28473025	0.25959366	-0.01609387	0.73781092	0.038200527	0.050870267	0.66801407	0.32792321	-0.1207268	0.89310719	0.42671334	0.16365195	0.67441558	0.31443932	0.0013912372	0.86156204	0.42076763	0.040434419	0.64372302	0.71855668	-0.1089963	0.70874294	0.75540505	0.22980927	0.7296525	0.76916942	-0.084571749	0.77961667	0.79618512	0.15549385	0.57351454	0.86614577	0.067881392	0.73539681	1.2739018	-0.11623244	0.74370642	1.2381007	0.24390167	0.65792334	1.2993101	0.067750945	0.77498299	0.94884927	-0.19088008	0.6240174	0.94963003	0.30992526	0.994962	0.86158226	-0.10822429	0.73258967	0.73616846	0.35766515
324	1.292	0.30788077	0.073800221	-0.045686419	0.92695649	0.03571275	0.095373768	0.33171695	0.20380396	-0.071814339	0.79085804	0.058971476	0.11424021	0.35634868	0.20254632	0.010157158	0.81615809	0.080484986	0.028173987	0.29712239	0.26476747	-0.01687053	0.73775006	0.038246921	0.05090024	0.68087841	0.33072641	-0.12138326	0.89447914	0.42637824	0.16449314	0.68681406	0.31724556	0.00099416311	0.8636906	0.42124138	0.041180039	0.65045724	0.72140228	-0.10902903	0.71346398	0.75735592	0.23026926	0.73619046	0.77192922	-0.084055187	0.78511261	0.79844721	0.15664266	0.57962424	0.86860946	0.067839552	0.74079798	1.2765273	-0.11628384	0.74932187	1.2409026	0.24395191	0.66353064	1.3018992	0.067812723	0.77790551	0.95137576	-0.19071338	0.63180068	0.95117973	0.3101669	0.99686568	0.85987402	-0.11038638	0.74445536	0.73940868	0.3568297
325	1.296	0.32067413	0.078703729	-0.046036829	0.92681222	0.035738686	0.095612356	0.3443697	0.20857723	-0.072454708	0.79078259	0.058878752	0.11433852	0.36883965	0.20753557	0.0094775595	0.81613397	0.080610508	0.028395586	0.30950984	0.26970478	-0.017595288	0.73768692	0.038293629	0.050929329	0.69371152	0.33368151	-0.12195282	0.89568148	0.42610404	0.16515196	0.69921163	0.32010159	0.0006791033	0.8657073	0.42160121	0.04187171	0.65721611	0.72430692	-0.10911505	0.71804506	0.7592794	0.23055207	0.74268948	0.77471305	-0.083550234	0.79061432	0.80078573	0.15774767	0.58559027	0.87112544	0.067803972	0.7461999	1.2791683	-0.11632847	0.75490471	1.2437707	0.24400165	0.66911573	1.3045231	0.0678565	0.78067235	0.95386966	-0.19052334	0.63951893	0.9527981	0.31038312	0.99863681	0.85822845	-0.11263022	0.7562787	0.74282024	0.35595327
